# xmcd
#
# Track frame offsets:
#	150
#	20592
#	53895
#	82767
#	99192
#	123795
#	164070
#	197595
#	226022
#
# Disc length: 3457 seconds
#
# Revision: 0
# Processed by: cddbd v1.4b42PL1 Copyright (c) Steve Scherf et al.
# Submitted via: audiograbber 1.80
#
DISCID=600d7f09
DTITLE=Chris Hinze - Nazali
DYEAR=1900
DGENRE=
TTITLE0=Nazali
TTITLE1=Sangana
TTITLE2=African Fly
TTITLE3=Yo
TTITLE4=Ose
TTITLE5=Abassa
TTITLE6=Mantra
TTITLE7=Gingerwood
TTITLE8=Potto Potto
EXTD=
EXTT0=
EXTT1=
EXTT2=
EXTT3=
EXTT4=
EXTT5=
EXTT6=
EXTT7=
EXTT8=
PLAYORDER=
